<svg width="33" height="32" viewBox="0 0 33 32" fill="none" xmlns="http://www.w3.org/2000/svg">
<g id="ArrowCircleRight">
<path id="Vector" d="M16.5 3C13.9289 3 11.4154 3.76244 9.27759 5.1909C7.13975 6.61935 5.47351 8.64968 4.48957 11.0251C3.50563 13.4006 3.24819 16.0144 3.7498 18.5362C4.25141 21.0579 5.48954 23.3743 7.30762 25.1924C9.1257 27.0105 11.4421 28.2486 13.9638 28.7502C16.4856 29.2518 19.0995 28.9944 21.4749 28.0104C23.8503 27.0265 25.8807 25.3603 27.3091 23.2224C28.7376 21.0846 29.5 18.5712 29.5 16C29.4964 12.5533 28.1256 9.24882 25.6884 6.81163C23.2512 4.37445 19.9467 3.00364 16.5 3ZM22.2075 16.7075L18.2075 20.7075C18.0199 20.8951 17.7654 21.0006 17.5 21.0006C17.2346 21.0006 16.9801 20.8951 16.7925 20.7075C16.6049 20.5199 16.4995 20.2654 16.4995 20C16.4995 19.7346 16.6049 19.4801 16.7925 19.2925L19.0863 17H11.5C11.2348 17 10.9804 16.8946 10.7929 16.7071C10.6054 16.5196 10.5 16.2652 10.5 16C10.5 15.7348 10.6054 15.4804 10.7929 15.2929C10.9804 15.1054 11.2348 15 11.5 15H19.0863L16.7925 12.7075C16.6049 12.5199 16.4995 12.2654 16.4995 12C16.4995 11.7346 16.6049 11.4801 16.7925 11.2925C16.9801 11.1049 17.2346 10.9994 17.5 10.9994C17.7654 10.9994 18.0199 11.1049 18.2075 11.2925L22.2075 15.2925C22.3005 15.3854 22.3742 15.4957 22.4246 15.6171C22.4749 15.7385 22.5008 15.8686 22.5008 16C22.5008 16.1314 22.4749 16.2615 22.4246 16.3829C22.3742 16.5043 22.3005 16.6146 22.2075 16.7075Z" fill="#EEE2E1"/>
</g>
</svg>
