<svg width="34" height="34" viewBox="0 0 34 34" fill="none" xmlns="http://www.w3.org/2000/svg">
<g id="ShoppingCartSimple" clip-path="url(#clip0_391_36)">
<path id="Vector" d="M10.625 30.8125C11.7986 30.8125 12.75 29.8611 12.75 28.6875C12.75 27.5139 11.7986 26.5625 10.625 26.5625C9.45139 26.5625 8.5 27.5139 8.5 28.6875C8.5 29.8611 9.45139 30.8125 10.625 30.8125Z" fill="white"/>
<path id="Vector_2" d="M24.4375 30.8125C25.6111 30.8125 26.5625 29.8611 26.5625 28.6875C26.5625 27.5139 25.6111 26.5625 24.4375 26.5625C23.2639 26.5625 22.3125 27.5139 22.3125 28.6875C22.3125 29.8611 23.2639 30.8125 24.4375 30.8125Z" fill="white"/>
<path id="Vector_3" d="M5.61664 9.5625H29.75L25.9622 21.8755C25.8284 22.3099 25.5588 22.69 25.1931 22.9599C24.8273 23.2298 24.3847 23.3753 23.9302 23.375H11.1655C10.7037 23.3752 10.2544 23.2249 9.88558 22.947C9.51677 22.669 9.24857 22.2784 9.12156 21.8344L4.31773 5.02031C4.25426 4.79841 4.12026 4.6032 3.93599 4.46422C3.75172 4.32524 3.52721 4.25004 3.29641 4.25H1.0625" stroke="white" stroke-width="2" stroke-linecap="round" stroke-linejoin="round"/>
</g>
<defs>
<clipPath id="clip0_391_36">
<rect width="34" height="34" fill="white"/>
</clipPath>
</defs>
</svg>
